<?xml version="1.0" encoding="UTF-8" standalone="no"?>
<!-- Created with Inkscape (http://www.inkscape.org/) -->

<svg
   xmlns:dc="http://purl.org/dc/elements/1.1/"
   xmlns:cc="http://creativecommons.org/ns#"
   xmlns:rdf="http://www.w3.org/1999/02/22-rdf-syntax-ns#"
   xmlns:svg="http://www.w3.org/2000/svg"
   xmlns="http://www.w3.org/2000/svg"
   version="1.1"
   width="108"
   height="31"
   id="svg2">
  <defs
     id="defs4" />
  <metadata
     id="metadata7">
    <rdf:RDF>
      <cc:Work
         rdf:about="">
        <dc:format>image/svg+xml</dc:format>
        <dc:type
           rdf:resource="http://purl.org/dc/dcmitype/StillImage" />
        <dc:title></dc:title>
      </cc:Work>
    </rdf:RDF>
  </metadata>
  <g
     transform="translate(0,-1021.3622)"
     id="layer1">
    <g
       transform="matrix(0.99381744,0,0,1.0109553,-96.791717,941.65094)"
       id="text2985-1"
       style="font-size:40px;font-style:normal;font-weight:normal;line-height:125%;letter-spacing:0px;word-spacing:0px;fill:#ff2a2a;fill-opacity:1;stroke:none;font-family:Sans">
      <path
         d="m 133.52667,80.761505 -4.57031,27.070315 -11.09375,0.23437 -2.38281,-14.023435 -2.38282,13.007815 -11.09375,0.39062 -4.60937,-26.679685 9.6875,-0.859375 1.95312,16.210938 2.61719,-16.210938 7.61719,0 3.04687,16.40625 1.5625,-16.40625 z"
         id="path2990-7"
         style="fill:#ff2a2a;font-family:luckiest guy;-inkscape-font-specification:luckiest guy" />
      <path
         d="m 158.76105,94.081818 c -3e-5,1.184908 -0.13675,2.327485 -0.41016,3.427734 -0.27346,1.10027 -0.66734,2.13217 -1.18164,3.095708 -0.51435,0.96354 -1.13934,1.8457 -1.875,2.64648 -0.7357,0.80078 -1.56252,1.48763 -2.48047,2.06055 -0.91799,0.57292 -1.91733,1.01888 -2.99805,1.33789 -1.08074,0.31901 -2.22657,0.47851 -3.4375,0.47851 -1.17188,0 -2.28842,-0.14974 -3.3496,-0.44922 -1.06121,-0.29947 -2.05405,-0.7194 -2.97852,-1.25976 -0.92448,-0.54036 -1.76107,-1.1914 -2.50977,-1.95313 -0.7487,-0.76171 -1.38672,-1.60806 -1.91406,-2.53906 -0.52734,-0.930981 -0.9375,-1.930329 -1.23047,-2.998046 -0.29297,-1.067697 -0.43945,-2.180978 -0.43945,-3.339844 0,-1.132798 0.13672,-2.242823 0.41016,-3.330078 0.27343,-1.087222 0.66731,-2.112611 1.18164,-3.076172 0.51432,-0.963521 1.13606,-1.848937 1.86523,-2.65625 0.72916,-0.807268 1.54622,-1.503882 2.45117,-2.089844 0.90494,-0.585912 1.88476,-1.041641 2.93946,-1.367187 1.05467,-0.325495 2.16795,-0.488255 3.33984,-0.488281 1.88801,2.6e-5 3.61001,0.292994 5.16602,0.878906 1.55597,0.585962 2.88409,1.42255 3.98437,2.509766 1.10024,1.087261 1.9531,2.402364 2.55859,3.945312 0.60545,1.542986 0.90818,3.26499 0.90821,5.166016 z m -8.67188,0.507812 c -1e-5,-0.559882 -0.0814,-1.103501 -0.24414,-1.630859 -0.16277,-0.527329 -0.4004,-0.996078 -0.71289,-1.40625 -0.31251,-0.41014 -0.69988,-0.742171 -1.16211,-0.996094 -0.46225,-0.253889 -0.99285,-0.380842 -1.5918,-0.380859 -0.61199,1.7e-5 -1.15886,0.110694 -1.64062,0.332031 -0.48178,0.221371 -0.89519,0.524105 -1.24023,0.908203 -0.34507,0.384131 -0.60874,0.833349 -0.79102,1.347656 -0.1823,0.514338 -0.27345,1.057957 -0.27344,1.63086 -1e-5,0.546888 0.0781,1.093762 0.23438,1.640625 0.15624,0.546886 0.39061,1.041677 0.70312,1.484375 0.31249,0.442718 0.69986,0.80079 1.16211,1.074218 0.46223,0.273447 0.99934,0.410165 1.61133,0.410157 0.61197,8e-6 1.1621,-0.120434 1.65039,-0.361328 0.48827,-0.240876 0.90168,-0.566397 1.24023,-0.976563 0.33853,-0.410146 0.59895,-0.88215 0.78125,-1.416016 0.18228,-0.533842 0.27343,-1.087226 0.27344,-1.660156 z"
         id="path2992-4"
         style="fill:#ff2a2a;font-family:luckiest guy;-inkscape-font-specification:luckiest guy" />
      <path
         d="m 195.40167,80.761505 -4.57031,27.070315 -11.09375,0.23437 -2.38281,-14.023435 -2.38282,13.007815 -11.09375,0.39062 -4.60937,-26.679685 9.6875,-0.859375 1.95312,16.210938 2.61719,-16.210938 7.61719,0 3.04687,16.40625 1.5625,-16.40625 z"
         id="path2994-0"
         style="fill:#ff2a2a;font-family:luckiest guy;-inkscape-font-specification:luckiest guy" />
      <path
         d="m 206.06573,78.847443 -1.60156,20.546875 -7.22656,0 -0.74219,-20.546875 z m -1.28906,26.562497 c -1e-5,0.57292 -0.11068,1.10677 -0.33203,1.60157 -0.22136,0.49479 -0.51759,0.92773 -0.88867,1.29882 -0.3711,0.3711 -0.80404,0.66406 -1.29883,0.87891 -0.4948,0.21484 -1.02214,0.32226 -1.58203,0.32227 -0.57292,-1e-5 -1.10678,-0.10743 -1.60156,-0.32227 -0.4948,-0.21485 -0.92774,-0.50781 -1.29883,-0.87891 -0.3711,-0.37109 -0.66406,-0.80403 -0.87891,-1.29882 -0.21484,-0.4948 -0.32226,-1.02865 -0.32226,-1.60157 0,-0.55989 0.10742,-1.09374 0.32226,-1.60156 0.21485,-0.50781 0.50781,-0.94726 0.87891,-1.31836 0.37109,-0.37109 0.80403,-0.66731 1.29883,-0.88867 0.49478,-0.22135 1.02864,-0.33203 1.60156,-0.33203 0.55989,0 1.08723,0.11068 1.58203,0.33203 0.49479,0.22136 0.92773,0.51758 1.29883,0.88867 0.37108,0.3711 0.66731,0.81055 0.88867,1.31836 0.22135,0.50782 0.33202,1.04167 0.33203,1.60156 z"
         id="path2996-9"
         style="fill:#ff2a2a;font-family:luckiest guy;-inkscape-font-specification:luckiest guy" />
    </g>
  </g>
</svg>
