<?xml version="1.0" encoding="UTF-8" standalone="no"?>
<svg width="114px" height="35px" viewBox="0 0 114 35" version="1.1" xmlns="http://www.w3.org/2000/svg" xmlns:xlink="http://www.w3.org/1999/xlink" xmlns:sketch="http://www.bohemiancoding.com/sketch/ns">
    <!-- Generator: Sketch 3.0.2 (7799) - http://www.bohemiancoding.com/sketch -->
    <title>wow 2 + wow 3</title>
    <description>Created with Sketch.</description>
    <defs>
        <filter x="-50%" y="-50%" width="200%" height="200%" filterUnits="objectBoundingBox" id="filter-1">
            <feMorphology radius="2" in="SourceAlpha" operator="dilate" result="shadowSpreadOuter1"></feMorphology>
            <feOffset dx="0" dy="0" in="shadowSpreadOuter1" result="shadowOffsetOuter1"></feOffset>
            <feGaussianBlur stdDeviation="0" in="shadowOffsetOuter1" result="shadowBlurOuter1"></feGaussianBlur>
            <feColorMatrix values="0 0 0 0 1   0 0 0 0 1   0 0 0 0 1  0 0 0 0.7 0" in="shadowBlurOuter1" type="matrix" result="shadowMatrixOuter1"></feColorMatrix>
            <feMerge>
                <feMergeNode in="shadowMatrixOuter1"></feMergeNode>
                <feMergeNode in="SourceGraphic"></feMergeNode>
            </feMerge>
        </filter>
        <filter x="-50%" y="-50%" width="200%" height="200%" filterUnits="objectBoundingBox" id="filter-2">
            <feMorphology radius="2" in="SourceAlpha" operator="dilate" result="shadowSpreadOuter1"></feMorphology>
            <feOffset dx="0" dy="0" in="shadowSpreadOuter1" result="shadowOffsetOuter1"></feOffset>
            <feGaussianBlur stdDeviation="0" in="shadowOffsetOuter1" result="shadowBlurOuter1"></feGaussianBlur>
            <feColorMatrix values="0 0 0 0 1   0 0 0 0 1   0 0 0 0 1  0 0 0 0.7 0" in="shadowBlurOuter1" type="matrix" result="shadowMatrixOuter1"></feColorMatrix>
            <feMerge>
                <feMergeNode in="shadowMatrixOuter1"></feMergeNode>
                <feMergeNode in="SourceGraphic"></feMergeNode>
            </feMerge>
        </filter>
        <filter x="-50%" y="-50%" width="200%" height="200%" filterUnits="objectBoundingBox" id="filter-3">
            <feMorphology radius="2" in="SourceAlpha" operator="dilate" result="shadowSpreadOuter1"></feMorphology>
            <feOffset dx="0" dy="0" in="shadowSpreadOuter1" result="shadowOffsetOuter1"></feOffset>
            <feGaussianBlur stdDeviation="0" in="shadowOffsetOuter1" result="shadowBlurOuter1"></feGaussianBlur>
            <feColorMatrix values="0 0 0 0 1   0 0 0 0 1   0 0 0 0 1  0 0 0 0.7 0" in="shadowBlurOuter1" type="matrix" result="shadowMatrixOuter1"></feColorMatrix>
            <feMerge>
                <feMergeNode in="shadowMatrixOuter1"></feMergeNode>
                <feMergeNode in="SourceGraphic"></feMergeNode>
            </feMerge>
        </filter>
        <filter x="-50%" y="-50%" width="200%" height="200%" filterUnits="objectBoundingBox" id="filter-4">
            <feMorphology radius="2" in="SourceAlpha" operator="dilate" result="shadowSpreadOuter1"></feMorphology>
            <feOffset dx="0" dy="0" in="shadowSpreadOuter1" result="shadowOffsetOuter1"></feOffset>
            <feGaussianBlur stdDeviation="0" in="shadowOffsetOuter1" result="shadowBlurOuter1"></feGaussianBlur>
            <feColorMatrix values="0 0 0 0 1   0 0 0 0 1   0 0 0 0 1  0 0 0 0.7 0" in="shadowBlurOuter1" type="matrix" result="shadowMatrixOuter1"></feColorMatrix>
            <feMerge>
                <feMergeNode in="shadowMatrixOuter1"></feMergeNode>
                <feMergeNode in="SourceGraphic"></feMergeNode>
            </feMerge>
        </filter>
    </defs>
    <g id="Page-1" stroke="none" stroke-width="1" fill="none" fill-rule="evenodd" sketch:type="MSPage">
        <g id="wow-2-+-wow-3" sketch:type="MSLayerGroup" transform="translate(3.000000, 2.000000)">
            <g id="wow-2" fill="#FFFFFF" sketch:type="MSShapeGroup">
                <path d="M35.9094164,1.93501152 L31.3673626,29.3018899 L20.3422003,29.5388275 L17.9741222,15.3617616 L15.6060341,28.5120811 L4.58087191,28.9069805 L-3.83081606e-07,1.93501152 L9.62760607,1.0662218 L11.5686508,17.4547555 L14.1696599,1.0662218 L21.7397561,1.0662218 L24.7677887,17.6522072 L26.3206284,1.0662218 L35.9094164,1.93501152 Z" id="path2990-7" filter="url(#filter-1)"></path>
                <path d="M60.9877833,15.4012525 C60.9877535,16.5991416 60.8518787,17.7542358 60.5801591,18.8665384 C60.3083898,19.9788622 59.916945,21.022067 59.4058247,21.9961608 C58.8946547,22.9702567 58.2735287,23.862081 57.542417,24.6716338 C56.8112655,25.4811866 55.9895574,26.1755612 55.0772826,26.7547577 C54.1649682,27.3339542 53.1718066,27.7847999 52.0977683,28.1073047 C51.02371,28.4298096 49.8849642,28.5910569 48.6815208,28.5910569 C47.516886,28.5910569 46.4072491,28.4396765 45.3526299,28.1369156 C44.2979809,27.8341648 43.3112792,27.4096344 42.3925248,26.8633545 C41.4737604,26.3170747 40.6423427,25.6589024 39.8982716,24.8888274 C39.1542005,24.1187727 38.5201251,23.2631506 37.9960454,22.3219513 C37.4719657,21.3807711 37.0643415,20.3704749 36.7731828,19.2910608 C36.4820241,18.2116668 36.3364498,17.0861895 36.3364498,15.9146278 C36.3364498,14.7694196 36.4723245,13.647234 36.7440739,12.5480678 C37.0158134,11.4489349 37.4072582,10.4123125 37.9184084,9.43819538 C38.4295486,8.46411872 39.0474446,7.56900272 39.7721065,6.75284537 C40.4967584,5.9367335 41.3087669,5.23248789 42.208122,4.6401065 C43.1074671,4.04777566 44.0812293,3.58705401 45.1294086,3.25794156 C46.177558,2.92888066 47.2839551,2.76433758 48.4485998,2.76431129 C50.3249371,2.76433758 52.0362907,3.06051513 53.5826806,3.65284597 C55.1290307,4.24522736 56.4489395,5.09098043 57.542417,6.19010721 C58.6358547,7.28927948 59.4834418,8.61878983 60.0851883,10.1786413 C60.6868951,11.7385312 60.9877535,13.4794002 60.9877833,15.4012525 L60.9877833,15.4012525 Z M52.3695177,15.9146278 C52.3695078,15.3486121 52.288621,14.7990376 52.1268871,14.2659022 C51.9651234,13.7327962 51.7289626,13.2589119 51.4184046,12.8442463 C51.1078267,12.4296131 50.7228516,12.0939446 50.2634794,11.8372398 C49.8040873,11.5805694 49.2767678,11.4522256 48.6815208,11.4522084 C48.0733145,11.4522256 47.5298255,11.5641151 47.051044,11.7878769 C46.5722427,12.0116731 46.1613886,12.3177236 45.8184818,12.7060295 C45.4755453,13.0943688 45.2135054,13.5485081 45.0323524,14.0684495 C44.8511794,14.5884222 44.760593,15.1379967 44.7606029,15.7171761 C44.760593,16.2700554 44.8382201,16.8229206 44.9935339,17.3757746 C45.1488079,17.9286519 45.3817289,18.4288635 45.6923068,18.8764114 C46.0028648,19.3239795 46.3878398,19.6859743 46.847232,19.9623978 C47.3066042,20.2388405 47.8403935,20.3770562 48.4485998,20.3770482 C49.0567863,20.3770562 49.6035151,20.2552948 50.0887862,20.0117617 C50.5740374,19.7682468 50.9848915,19.4391597 51.3213484,19.0245002 C51.6577854,18.6098609 51.9165953,18.1326859 52.0977683,17.5929713 C52.2789213,17.0532809 52.3695078,16.4938344 52.3695177,15.9146278 L52.3695177,15.9146278 Z" id="path2992-4" filter="url(#filter-2)"></path>
                <path d="M97.4018705,1.93501152 L92.8598167,29.3018899 L81.8346544,29.5388275 L79.4665763,15.3617616 L77.0984882,28.5120811 L66.073326,28.9069805 L61.4924537,1.93501152 L71.1200602,1.0662218 L73.0611049,17.4547555 L75.662114,1.0662218 L83.2322102,1.0662218 L86.2602428,17.6522072 L87.8130825,1.0662218 L97.4018705,1.93501152 Z" id="path2994-0" filter="url(#filter-3)"></path>
                <path d="M107.999999,-1.96077022e-05 L106.408341,20.7719526 L99.2264596,20.7719526 L98.4888583,-1.96077022e-05 L107.999999,-1.96077022e-05 Z M106.718909,26.8534775 C106.718899,27.432674 106.608913,27.9723725 106.388932,28.4725932 C106.16894,28.9728038 105.874542,29.4104868 105.505756,29.7856422 C105.13695,30.1608077 104.706687,30.4569771 104.214956,30.6741809 C103.723215,30.8913745 103.199136,30.9999713 102.642707,30.9999814 C102.073329,30.9999713 101.54277,30.8913745 101.051049,30.6741809 C100.559308,30.4569771 100.129045,30.1608077 99.7602489,29.7856422 C99.3914433,29.4104868 99.1002945,28.9728038 98.8867728,28.4725932 C98.6732611,27.9723725 98.5665052,27.432674 98.5665052,26.8534775 C98.5665052,26.2874538 98.6732611,25.7477553 98.8867728,25.2343719 C99.1002945,24.7209987 99.3914433,24.2767344 99.7602489,23.9015689 C100.129045,23.5264135 100.559308,23.2269483 101.051049,23.0031633 C101.54277,22.7793883 102.073329,22.6674958 102.642707,22.6674958 C103.199136,22.6674958 103.723215,22.7793883 104.214956,23.0031633 C104.706687,23.2269483 105.13695,23.5264135 105.505756,23.9015689 C105.874542,24.2767344 106.16894,24.7209987 106.388932,25.2343719 C106.608913,25.7477553 106.718899,26.2874538 106.718909,26.8534775 L106.718909,26.8534775 Z" id="path2996-9" filter="url(#filter-4)"></path>
            </g>
            <g id="wow-3" fill="#DC3D3D" sketch:type="MSShapeGroup">
                <path d="M35.9094164,1.93501152 L31.3673626,29.3018899 L20.3422003,29.5388275 L17.9741222,15.3617616 L15.6060341,28.5120811 L4.58087191,28.9069805 L-3.83081606e-07,1.93501152 L9.62760607,1.0662218 L11.5686508,17.4547555 L14.1696599,1.0662218 L21.7397561,1.0662218 L24.7677887,17.6522072 L26.3206284,1.0662218 L35.9094164,1.93501152 Z" id="path2990-7"></path>
                <path d="M60.9877833,15.4012525 C60.9877535,16.5991416 60.8518787,17.7542358 60.5801591,18.8665384 C60.3083898,19.9788622 59.916945,21.022067 59.4058247,21.9961608 C58.8946547,22.9702567 58.2735287,23.862081 57.542417,24.6716338 C56.8112655,25.4811866 55.9895574,26.1755612 55.0772826,26.7547577 C54.1649682,27.3339542 53.1718066,27.7847999 52.0977683,28.1073047 C51.02371,28.4298096 49.8849642,28.5910569 48.6815208,28.5910569 C47.516886,28.5910569 46.4072491,28.4396765 45.3526299,28.1369156 C44.2979809,27.8341648 43.3112792,27.4096344 42.3925248,26.8633545 C41.4737604,26.3170747 40.6423427,25.6589024 39.8982716,24.8888274 C39.1542005,24.1187727 38.5201251,23.2631506 37.9960454,22.3219513 C37.4719657,21.3807711 37.0643415,20.3704749 36.7731828,19.2910608 C36.4820241,18.2116668 36.3364498,17.0861895 36.3364498,15.9146278 C36.3364498,14.7694196 36.4723245,13.647234 36.7440739,12.5480678 C37.0158134,11.4489349 37.4072582,10.4123125 37.9184084,9.43819538 C38.4295486,8.46411872 39.0474446,7.56900272 39.7721065,6.75284537 C40.4967584,5.9367335 41.3087669,5.23248789 42.208122,4.6401065 C43.1074671,4.04777566 44.0812293,3.58705401 45.1294086,3.25794156 C46.177558,2.92888066 47.2839551,2.76433758 48.4485998,2.76431129 C50.3249371,2.76433758 52.0362907,3.06051513 53.5826806,3.65284597 C55.1290307,4.24522736 56.4489395,5.09098043 57.542417,6.19010721 C58.6358547,7.28927948 59.4834418,8.61878983 60.0851883,10.1786413 C60.6868951,11.7385312 60.9877535,13.4794002 60.9877833,15.4012525 L60.9877833,15.4012525 Z M52.3695177,15.9146278 C52.3695078,15.3486121 52.288621,14.7990376 52.1268871,14.2659022 C51.9651234,13.7327962 51.7289626,13.2589119 51.4184046,12.8442463 C51.1078267,12.4296131 50.7228516,12.0939446 50.2634794,11.8372398 C49.8040873,11.5805694 49.2767678,11.4522256 48.6815208,11.4522084 C48.0733145,11.4522256 47.5298255,11.5641151 47.051044,11.7878769 C46.5722427,12.0116731 46.1613886,12.3177236 45.8184818,12.7060295 C45.4755453,13.0943688 45.2135054,13.5485081 45.0323524,14.0684495 C44.8511794,14.5884222 44.760593,15.1379967 44.7606029,15.7171761 C44.760593,16.2700554 44.8382201,16.8229206 44.9935339,17.3757746 C45.1488079,17.9286519 45.3817289,18.4288635 45.6923068,18.8764114 C46.0028648,19.3239795 46.3878398,19.6859743 46.847232,19.9623978 C47.3066042,20.2388405 47.8403935,20.3770562 48.4485998,20.3770482 C49.0567863,20.3770562 49.6035151,20.2552948 50.0887862,20.0117617 C50.5740374,19.7682468 50.9848915,19.4391597 51.3213484,19.0245002 C51.6577854,18.6098609 51.9165953,18.1326859 52.0977683,17.5929713 C52.2789213,17.0532809 52.3695078,16.4938344 52.3695177,15.9146278 L52.3695177,15.9146278 Z" id="path2992-4"></path>
                <path d="M97.4018705,1.93501152 L92.8598167,29.3018899 L81.8346544,29.5388275 L79.4665763,15.3617616 L77.0984882,28.5120811 L66.073326,28.9069805 L61.4924537,1.93501152 L71.1200602,1.0662218 L73.0611049,17.4547555 L75.662114,1.0662218 L83.2322102,1.0662218 L86.2602428,17.6522072 L87.8130825,1.0662218 L97.4018705,1.93501152 Z" id="path2994-0"></path>
                <path d="M107.999999,-1.96077022e-05 L106.408341,20.7719526 L99.2264596,20.7719526 L98.4888583,-1.96077022e-05 L107.999999,-1.96077022e-05 Z M106.718909,26.8534775 C106.718899,27.432674 106.608913,27.9723725 106.388932,28.4725932 C106.16894,28.9728038 105.874542,29.4104868 105.505756,29.7856422 C105.13695,30.1608077 104.706687,30.4569771 104.214956,30.6741809 C103.723215,30.8913745 103.199136,30.9999713 102.642707,30.9999814 C102.073329,30.9999713 101.54277,30.8913745 101.051049,30.6741809 C100.559308,30.4569771 100.129045,30.1608077 99.7602489,29.7856422 C99.3914433,29.4104868 99.1002945,28.9728038 98.8867728,28.4725932 C98.6732611,27.9723725 98.5665052,27.432674 98.5665052,26.8534775 C98.5665052,26.2874538 98.6732611,25.7477553 98.8867728,25.2343719 C99.1002945,24.7209987 99.3914433,24.2767344 99.7602489,23.9015689 C100.129045,23.5264135 100.559308,23.2269483 101.051049,23.0031633 C101.54277,22.7793883 102.073329,22.6674958 102.642707,22.6674958 C103.199136,22.6674958 103.723215,22.7793883 104.214956,23.0031633 C104.706687,23.2269483 105.13695,23.5264135 105.505756,23.9015689 C105.874542,24.2767344 106.16894,24.7209987 106.388932,25.2343719 C106.608913,25.7477553 106.718899,26.2874538 106.718909,26.8534775 L106.718909,26.8534775 Z" id="path2996-9"></path>
            </g>
        </g>
    </g>
</svg>